<mxfile host="app.diagrams.net" modified="2024-06-19T16:07:18.427Z" agent="Mozilla/5.0 (Windows NT 10.0; Win64; x64) AppleWebKit/537.36 (KHTML, like Gecko) Chrome/125.0.0.0 Safari/537.36" etag="6R-R6MCvgbzhR_NUwcPN" version="24.5.5" type="device">
  <diagram name="Página-1" id="9a-uIuPXoqr6vnxGy6uq">
    <mxGraphModel dx="1434" dy="780" grid="1" gridSize="10" guides="1" tooltips="1" connect="1" arrows="1" fold="1" page="1" pageScale="1" pageWidth="827" pageHeight="1169" math="0" shadow="0">
      <root>
        <mxCell id="0" />
        <mxCell id="1" parent="0" />
        <mxCell id="pNO7ZRAIR1xsrUgvr73_-5" style="edgeStyle=none;rounded=0;orthogonalLoop=1;jettySize=auto;html=1;exitX=0.5;exitY=1;exitDx=0;exitDy=0;entryX=0.5;entryY=0;entryDx=0;entryDy=0;" parent="1" source="pNO7ZRAIR1xsrUgvr73_-2" target="pNO7ZRAIR1xsrUgvr73_-4" edge="1">
          <mxGeometry relative="1" as="geometry" />
        </mxCell>
        <mxCell id="pNO7ZRAIR1xsrUgvr73_-2" value="INICIO" style="ellipse;whiteSpace=wrap;html=1;" parent="1" vertex="1">
          <mxGeometry x="210" y="30" width="160" height="80" as="geometry" />
        </mxCell>
        <mxCell id="pNO7ZRAIR1xsrUgvr73_-8" style="edgeStyle=none;rounded=0;orthogonalLoop=1;jettySize=auto;html=1;exitX=0.5;exitY=1;exitDx=0;exitDy=0;entryX=0.5;entryY=0;entryDx=0;entryDy=0;" parent="1" source="pNO7ZRAIR1xsrUgvr73_-3" target="pNO7ZRAIR1xsrUgvr73_-7" edge="1">
          <mxGeometry relative="1" as="geometry" />
        </mxCell>
        <mxCell id="pNO7ZRAIR1xsrUgvr73_-3" value="input del usuario en la variable days" style="whiteSpace=wrap;html=1;" parent="1" vertex="1">
          <mxGeometry x="210" y="210" width="160" height="60" as="geometry" />
        </mxCell>
        <mxCell id="pNO7ZRAIR1xsrUgvr73_-6" style="edgeStyle=none;rounded=0;orthogonalLoop=1;jettySize=auto;html=1;exitX=0.5;exitY=1;exitDx=0;exitDy=0;entryX=0.5;entryY=0;entryDx=0;entryDy=0;" parent="1" source="pNO7ZRAIR1xsrUgvr73_-4" target="pNO7ZRAIR1xsrUgvr73_-3" edge="1">
          <mxGeometry relative="1" as="geometry" />
        </mxCell>
        <mxCell id="pNO7ZRAIR1xsrUgvr73_-4" value="Ingrese la cantidad de días a convertir en minutos" style="whiteSpace=wrap;html=1;" parent="1" vertex="1">
          <mxGeometry x="190" y="130" width="200" height="60" as="geometry" />
        </mxCell>
        <mxCell id="pNO7ZRAIR1xsrUgvr73_-7" value="Calcular dias*minutos&lt;div&gt;24*60&lt;/div&gt;" style="whiteSpace=wrap;html=1;" parent="1" vertex="1">
          <mxGeometry x="220" y="300" width="140" height="60" as="geometry" />
        </mxCell>
        <mxCell id="KewrpejZnWnY6S7S9G_P-8" style="edgeStyle=orthogonalEdgeStyle;rounded=0;orthogonalLoop=1;jettySize=auto;html=1;exitX=0.5;exitY=1;exitDx=0;exitDy=0;entryX=0.5;entryY=0;entryDx=0;entryDy=0;elbow=vertical;" edge="1" parent="1" source="pNO7ZRAIR1xsrUgvr73_-9" target="KewrpejZnWnY6S7S9G_P-2">
          <mxGeometry relative="1" as="geometry" />
        </mxCell>
        <mxCell id="KewrpejZnWnY6S7S9G_P-16" value="" style="edgeStyle=elbowEdgeStyle;rounded=0;orthogonalLoop=1;jettySize=auto;elbow=vertical;html=1;" edge="1" parent="1" source="pNO7ZRAIR1xsrUgvr73_-9" target="pNO7ZRAIR1xsrUgvr73_-7">
          <mxGeometry relative="1" as="geometry" />
        </mxCell>
        <mxCell id="pNO7ZRAIR1xsrUgvr73_-9" value="dias equivalente a un minuto" style="whiteSpace=wrap;html=1;" parent="1" vertex="1">
          <mxGeometry x="205" y="390" width="170" height="60" as="geometry" />
        </mxCell>
        <mxCell id="KewrpejZnWnY6S7S9G_P-14" style="edgeStyle=elbowEdgeStyle;rounded=0;orthogonalLoop=1;jettySize=auto;html=1;entryX=0;entryY=0.5;entryDx=0;entryDy=0;elbow=vertical;" edge="1" parent="1" source="pNO7ZRAIR1xsrUgvr73_-15" target="KewrpejZnWnY6S7S9G_P-13">
          <mxGeometry relative="1" as="geometry">
            <mxPoint x="310" y="910" as="targetPoint" />
          </mxGeometry>
        </mxCell>
        <mxCell id="pNO7ZRAIR1xsrUgvr73_-15" value="&amp;nbsp;Reiniciar el proceso desde &quot;Mostrar mensaje&quot;" style="whiteSpace=wrap;html=1;" parent="1" vertex="1">
          <mxGeometry x="240" y="700" width="120" height="60" as="geometry" />
        </mxCell>
        <mxCell id="KewrpejZnWnY6S7S9G_P-15" style="edgeStyle=elbowEdgeStyle;rounded=0;orthogonalLoop=1;jettySize=auto;elbow=vertical;html=1;exitX=0.5;exitY=1;exitDx=0;exitDy=0;entryX=1;entryY=0.5;entryDx=0;entryDy=0;" edge="1" parent="1" source="pNO7ZRAIR1xsrUgvr73_-18" target="KewrpejZnWnY6S7S9G_P-13">
          <mxGeometry relative="1" as="geometry" />
        </mxCell>
        <mxCell id="pNO7ZRAIR1xsrUgvr73_-18" value="Mostrar mensaje de despedida" style="whiteSpace=wrap;html=1;" parent="1" vertex="1">
          <mxGeometry x="480" y="690" width="120" height="60" as="geometry" />
        </mxCell>
        <mxCell id="KewrpejZnWnY6S7S9G_P-1" style="edgeStyle=none;rounded=0;orthogonalLoop=1;jettySize=auto;html=1;exitX=0.5;exitY=1;exitDx=0;exitDy=0;entryX=0.5;entryY=0;entryDx=0;entryDy=0;" edge="1" parent="1" source="pNO7ZRAIR1xsrUgvr73_-7" target="pNO7ZRAIR1xsrUgvr73_-9">
          <mxGeometry relative="1" as="geometry" />
        </mxCell>
        <mxCell id="KewrpejZnWnY6S7S9G_P-5" style="edgeStyle=elbowEdgeStyle;rounded=0;orthogonalLoop=1;jettySize=auto;elbow=vertical;html=1;exitX=1;exitY=1;exitDx=0;exitDy=0;entryX=0.5;entryY=0;entryDx=0;entryDy=0;" edge="1" parent="1" source="KewrpejZnWnY6S7S9G_P-7" target="pNO7ZRAIR1xsrUgvr73_-18">
          <mxGeometry relative="1" as="geometry" />
        </mxCell>
        <mxCell id="KewrpejZnWnY6S7S9G_P-6" style="edgeStyle=elbowEdgeStyle;rounded=0;orthogonalLoop=1;jettySize=auto;elbow=vertical;html=1;exitX=0;exitY=1;exitDx=0;exitDy=0;entryX=0.5;entryY=0;entryDx=0;entryDy=0;" edge="1" parent="1" source="pNO7ZRAIR1xsrUgvr73_-14" target="pNO7ZRAIR1xsrUgvr73_-15">
          <mxGeometry relative="1" as="geometry">
            <Array as="points">
              <mxPoint x="350" y="680" />
              <mxPoint x="340" y="650" />
            </Array>
          </mxGeometry>
        </mxCell>
        <mxCell id="KewrpejZnWnY6S7S9G_P-2" value="&quot;¿Desea realizar otra conversión? (S/N):&quot;" style="rhombus;whiteSpace=wrap;html=1;" vertex="1" parent="1">
          <mxGeometry x="360" y="505" width="140" height="80" as="geometry" />
        </mxCell>
        <mxCell id="KewrpejZnWnY6S7S9G_P-9" value="" style="edgeStyle=elbowEdgeStyle;rounded=0;orthogonalLoop=1;jettySize=auto;elbow=vertical;html=1;exitX=1;exitY=1;exitDx=0;exitDy=0;entryX=0.5;entryY=0;entryDx=0;entryDy=0;" edge="1" parent="1" source="KewrpejZnWnY6S7S9G_P-2" target="KewrpejZnWnY6S7S9G_P-7">
          <mxGeometry relative="1" as="geometry">
            <mxPoint x="435" y="590" as="sourcePoint" />
            <mxPoint x="460" y="740" as="targetPoint" />
          </mxGeometry>
        </mxCell>
        <mxCell id="KewrpejZnWnY6S7S9G_P-7" value="No" style="text;html=1;align=center;verticalAlign=middle;resizable=0;points=[];autosize=1;strokeColor=none;fillColor=none;" vertex="1" parent="1">
          <mxGeometry x="440" y="630" width="40" height="30" as="geometry" />
        </mxCell>
        <mxCell id="KewrpejZnWnY6S7S9G_P-11" value="" style="edgeStyle=elbowEdgeStyle;rounded=0;orthogonalLoop=1;jettySize=auto;elbow=vertical;html=1;exitX=0;exitY=1;exitDx=0;exitDy=0;entryX=0.5;entryY=0;entryDx=0;entryDy=0;" edge="1" parent="1" source="KewrpejZnWnY6S7S9G_P-2" target="pNO7ZRAIR1xsrUgvr73_-14">
          <mxGeometry relative="1" as="geometry">
            <mxPoint x="365" y="590" as="sourcePoint" />
            <mxPoint x="300" y="740" as="targetPoint" />
            <Array as="points" />
          </mxGeometry>
        </mxCell>
        <mxCell id="pNO7ZRAIR1xsrUgvr73_-14" value="SI" style="text;html=1;align=center;verticalAlign=middle;resizable=0;points=[];autosize=1;strokeColor=none;fillColor=none;" parent="1" vertex="1">
          <mxGeometry x="340" y="630" width="30" height="30" as="geometry" />
        </mxCell>
        <mxCell id="KewrpejZnWnY6S7S9G_P-13" value="Fin del Programa" style="ellipse;whiteSpace=wrap;html=1;" vertex="1" parent="1">
          <mxGeometry x="360" y="790" width="120" height="80" as="geometry" />
        </mxCell>
      </root>
    </mxGraphModel>
  </diagram>
</mxfile>
